#!OML:ASF \\sashay\E\Suitcase\Project 1\Capture day 1\Session 1\Male1.ASF
:FULLY-SPECIFIED
:DEGREES
1622
root -0.96782 17.7536 8.81993 10.6907 1.5277 1.39686
lowerback 15.0851 -1.83661 13.9944
upperback 7.27356 -0.242085 12.8127
thorax -0.532152 -0.0386434 6.05354
lowerneck -4.89704 -8.97395 -4.32458
upperneck 35.7729 -11.1806 -3.6339
head 12.7614 -5.73846 -1.93727
rclavicle 1.27222e-014 6.36111e-015
rhumerus -7.13926 -13.0419 -54.2646
rradius 22.9619
rwrist -3.8464
rhand -12.647 17.0755
rfingers 7.12502
rthumb 13.4335 -12.4713
lclavicle 1.27222e-014 6.36111e-015
lhumerus -31.853 -13.2589 99.8868
lradius 51.5005
lwrist 1.06151
lhand 0.391972 43.6648
lfingers 7.12502
lthumb 25.9658 71.9111
rfemur -15.5336 -1.37331 20.2562
rtibia 14.4769
rfoot -8.55863 -12.188
rtoes 13.803
lfemur -14.6066 -0.708379 -19.4791
ltibia 14.4624
lfoot -8.81683 2.98731
ltoes -3.81214
1623
root -0.966611 17.7547 8.82446 10.6941 1.55816 1.33361
lowerback 15.0842 -1.89168 14.0865
upperback 7.28766 -0.305711 12.7544
thorax -0.514898 -0.0660271 5.94813
lowerneck -4.87276 -8.98515 -4.11298
upperneck 35.704 -11.2065 -3.71728
head 12.7023 -5.73621 -1.99922
rclavicle 6.67916e-014 1.43125e-013
rhumerus -7.14325 -12.8813 -54.3187
rradius 22.8821
rwrist -3.81415
rhand -12.2453 17.7063
rfingers 7.12502
rthumb 13.8207 -11.8145
lclavicle 6.67916e-014 1.43125e-013
lhumerus -31.8163 -13.2004 99.7399
lradius 51.4848
lwrist 0.777644
lhand 1.15591 43.9937
lfingers 7.12502
lthumb 26.6971 72.1307
rfemur -15.5387 -1.4899 20.3395
rtibia 14.5131
rfoot -8.55868 -12.1
rtoes 13.8395
lfemur -14.5657 -0.691341 -19.4147
ltibia 14.4037
lfoot -8.82827 2.90977
ltoes -3.22073
1624
root -0.966417 17.7538 8.8305 10.653 1.67343 1.3541
lowerback 15.0102 -1.95061 14.0745
upperback 7.36176 -0.414758 12.7223
thorax -0.39299 -0.113669 5.93365
lowerneck -4.98435 -9.01754 -3.96652
upperneck 35.6488 -11.2536 -3.77786
head 12.6845 -5.7469 -2.05436
rclavicle 4.45278e-014 9.54166e-014
rhumerus -7.00811 -13.08 -54.4237
rradius 22.7949
rwrist -3.61914
rhand -12.2143 17.3714
rfingers 7.12502
rthumb 13.8505 -12.1474
lclavicle 4.45278e-014 9.54166e-014
lhumerus -31.6681 -13.4353 99.679
lradius 51.4219
lwrist 0.643773
lhand 1.07782 44.0863
lfingers 7.12502
lthumb 26.6223 72.2346
rfemur -15.4702 -1.54477 20.3308
rtibia 14.5511
rfoot -8.61914 -12.1641
rtoes 13.8938
lfemur -14.4944 -0.874042 -19.4067
ltibia 14.3898
lfoot -8.82923 2.94475
ltoes -2.79022
1625
root -0.9704 17.7552 8.83468 10.7305 1.58114 1.33152
lowerback 14.921 -1.89363 14.0263
upperback 7.39702 -0.37686 12.6969
thorax -0.307201 -0.0925766 5.92144
lowerneck -5.01863 -9.06321 -3.90648
upperneck 35.5928 -11.3269 -3.77592
head 12.6625 -5.7721 -2.07089
rclavicle -9.54166e-015 6.99722e-014
rhumerus -7.02449 -12.9588 -54.4657
rradius 22.8317
rwrist -3.9379
rhand -12.2225 17.7014
rfingers 7.12502
rthumb 13.8426 -11.818
lclavicle -9.54166e-015 6.99722e-014
lhumerus -31.4707 -13.576 99.6987
lradius 50.9716
lwrist 0.676754
lhand 0.383306 43.5683
lfingers 7.12502
lthumb 25.9575 71.8158
rfemur -15.535 -1.23797 20.3268
rtibia 14.5138
rfoot -8.61668 -12.3826
rtoes 13.9819
lfemur -14.5772 -0.887972 -19.3706
ltibia 14.4134
lfoot -8.81756 3.0356
ltoes -2.50103
1626
root -0.970132 17.7534 8.83333 10.7166 1.55133 1.34852
lowerback 15.0173 -1.87141 13.9654
upperback 7.41273 -0.336481 12.7036
thorax -0.342761 -0.0753512 5.95828
lowerneck -5.07364 -9.10896 -3.90103
upperneck 35.5446 -11.3857 -3.78969
head 12.6516 -5.79917 -2.08483
rclavicle 2.54444e-014 7.95139e-014
rhumerus -7.15431 -12.9318 -54.4035
rradius 23.1387
rwrist -4.19849
rhand -11.8694 17.1185
rfingers 7.12502
rthumb 14.1829 -12.3773
lclavicle 2.54444e-014 7.95139e-014
lhumerus -31.506 -13.6907 99.7777
lradius 51.1774
lwrist 0.786703
lhand 0.626995 44.1332
lfingers 7.12502
lthumb 26.1908 72.3463
rfemur -15.5367 -1.1568 20.3031
rtibia 14.5183
rfoot -8.6137 -12.4506
rtoes 14.0824
lfemur -14.5961 -0.868669 -19.3883
ltibia 14.4551
lfoot -8.82406 3.03649
ltoes -2.35388
1627
root -0.968797 17.7545 8.83722 10.7078 1.61933 1.29261
lowerback 14.9855 -1.89048 14.042
upperback 7.43713 -0.362107 12.727
thorax -0.29662 -0.084671 5.94708
lowerneck -5.0966 -9.14449 -3.94333
upperneck 35.4765 -11.4363 -3.75769
head 12.6333 -5.82355 -2.07041
rclavicle 4.45278e-014 -7.31528e-014
rhumerus -7.04675 -13.019 -54.4306
rradius 22.9491
rwrist -4.04989
rhand -12.5416 17.912
rfingers 7.12502
rthumb 13.535 -11.6281
lclavicle 4.45278e-014 -7.31528e-014
lhumerus -31.3918 -13.8076 99.8571
lradius 50.9142
lwrist 0.850334
lhand 0.975149 43.9193
lfingers 7.12502
lthumb 26.5241 72.0825
rfemur -15.4757 -1.16391 20.3679
rtibia 14.4768
rfoot -8.63872 -12.5162
rtoes 14.2982
lfemur -14.6157 -0.95988 -19.3147
ltibia 14.5376
lfoot -8.88505 3.08989
ltoes -2.32335
1628
root -0.965537 17.7529 8.83535 10.6474 1.64962 1.27993
lowerback 15.1059 -1.98013 14.0387
upperback 7.45374 -0.454114 12.6972
thorax -0.342891 -0.130921 5.93405
lowerneck -5.09142 -9.10878 -3.89465
upperneck 35.4347 -11.3891 -3.77439
head 12.6088 -5.80146 -2.07631
rclavicle 1.90833e-014 1.145e-013
rhumerus -7.1892 -12.7918 -54.5953
rradius 23.3935
rwrist -4.20601
rhand -12.2772 16.7342
rfingers 7.12502
rthumb 13.7898 -12.7888
lclavicle 1.90833e-014 1.145e-013
lhumerus -31.3971 -13.7504 99.8057
lradius 50.9693
lwrist 0.85962
lhand 0.808254 44.1447
lfingers 7.12502
lthumb 26.3643 72.3319
rfemur -15.4262 -1.24624 20.3905
rtibia 14.5064
rfoot -8.64849 -12.4825
rtoes 14.5219
lfemur -14.5904 -0.955684 -19.3067
ltibia 14.5982
lfoot -8.93847 3.07807
ltoes -2.32849
1629
root -0.971034 17.7518 8.84497 10.7017 1.53784 1.17044
lowerback 14.9918 -1.98286 13.9794
upperback 7.50094 -0.503236 12.6966
thorax -0.229495 -0.153086 5.9696
lowerneck -5.12655 -9.07168 -3.8886
upperneck 35.4369 -11.3422 -3.76046
head 12.6175 -5.77999 -2.06931
rclavicle 3.18055e-014 -5.08889e-014
rhumerus -7.0376 -12.3007 -54.7835
rradius 23.4587
rwrist -5.01815
rhand -12.6057 17.3734
rfingers 7.12502
rthumb 13.4732 -12.1708
lclavicle 3.18055e-014 -5.08889e-014
lhumerus -31.2923 -13.545 99.6949
lradius 50.8588
lwrist 0.840634
lhand 0.917974 43.9018
lfingers 7.12502
lthumb 26.4693 72.0733
rfemur -15.4557 -0.907435 20.4936
rtibia 14.4631
rfoot -8.6491 -12.7055
rtoes 14.7384
lfemur -14.6549 -0.867243 -19.1739
ltibia 14.6439
lfoot -8.99001 3.13562
ltoes -2.33089
1630
root -0.962886 17.7524 8.84196 10.6713 1.6852 1.30694
lowerback 15.0068 -2.05946 13.9631
upperback 7.50307 -0.599754 12.6783
thorax -0.235267 -0.199974 5.97405
lowerneck -5.13507 -9.1011 -4.06904
upperneck 35.4101 -11.382 -3.66493
head 12.6306 -5.80812 -2.01009
rclavicle 1.59028e-014 -6.36111e-015
rhumerus -6.9671 -12.7293 -54.9087
rradius 23.4627
rwrist -4.58925
rhand -12.7461 16.734
rfingers 7.12502
rthumb 13.338 -12.8191
lclavicle 1.59028e-014 -6.36111e-015
lhumerus -31.2309 -13.5869 99.8302
lradius 50.8141
lwrist 0.799742
lhand 0.974682 44.1069
lfingers 7.12502
lthumb 26.5236 72.2702
rfemur -15.3965 -1.15778 20.3512
rtibia 14.4698
rfoot -8.64125 -12.6437
rtoes 14.6794
lfemur -14.6528 -0.877455 -19.3501
ltibia 14.683
lfoot -9.04014 2.97778
ltoes -2.35628
1631
root -0.969822 17.753 8.85515 10.6281 1.5708 1.20296
lowerback 14.9672 -2.16416 13.8338
upperback 7.55 -0.774546 12.5955
thorax -0.163901 -0.285643 5.97664
lowerneck -4.9892 -8.97952 -3.76726
upperneck 35.3658 -11.2285 -3.79187
head 12.5462 -5.7255 -2.07456
rclavicle -6.04305e-014 -1.08139e-013
rhumerus -6.80211 -11.9027 -55.2942
rradius 23.3768
rwrist -4.61745
rhand -13.1156 17.5068
rfingers 7.12502
rthumb 12.9818 -12.0694
lclavicle -6.04305e-014 -1.08139e-013
lhumerus -31.2513 -13.2875 99.5708
lradius 50.753
lwrist 0.934101
lhand 0.57065 44.2538
lfingers 7.12502
lthumb 26.1368 72.4749
rfemur -15.2917 -0.829082 20.4547
rtibia 14.4152
rfoot -8.63995 -12.8471
rtoes 14.5704
lfemur -14.5846 -0.768546 -19.2203
ltibia 14.7233
lfoot -9.10572 3.00105
ltoes -2.41444
1632
root -0.964462 17.7538 8.85827 10.6218 1.63313 1.19152
lowerback 14.8942 -2.19641 13.9095
upperback 7.55052 -0.8231 12.5899
thorax -0.123128 -0.305924 5.9348
lowerneck -4.93824 -9.01319 -3.82296
upperneck 35.3372 -11.2683 -3.79126
head 12.5283 -5.75028 -2.06562
rclavicle -6.36111e-015 1.27222e-014
rhumerus -6.77211 -12.5648 -55.4897
rradius 23.2177
rwrist -4.24887
rhand -13.54 17.7282
rfingers 7.12502
rthumb 12.5726 -11.8735
lclavicle -6.36111e-015 1.27222e-014
lhumerus -31.2324 -13.4545 99.6574
lradius 50.7298
lwrist 0.930575
lhand 1.14869 44.2915
lfingers 7.12502
lthumb 26.6902 72.4295
rfemur -15.2736 -1.10668 20.4854
rtibia 14.438
rfoot -8.61177 -12.6423
rtoes 14.3169
lfemur -14.5457 -0.82048 -19.2222
ltibia 14.6896
lfoot -9.10342 2.98168
ltoes -2.52068
1633
root -0.965926 17.7545 8.86606 10.6197 1.63608 1.05714
lowerback 14.8576 -2.19682 14.0318
upperback 7.50076 -0.806837 12.6103
thorax -0.15704 -0.297276 5.88828
lowerneck -4.75755 -9.04524 -3.89244
upperneck 35.3032 -11.3203 -3.75308
head 12.4856 -5.77858 -2.03352
rclavicle 1.59028e-014 -2.22639e-014
rhumerus -6.75884 -12.3163 -55.4844
rradius 23.0974
rwrist -4.14771
rhand -14.1193 18.4152
rfingers 7.12502
rthumb 12.0141 -11.22
lclavicle 1.59028e-014 -2.22639e-014
lhumerus -31.3226 -13.4302 99.7573
lradius 50.7488
lwrist 0.844062
lhand 1.7161 44.4494
lfingers 7.12502
lthumb 27.233 72.5034
rfemur -15.2014 -0.8419 20.616
rtibia 14.3602
rfoot -8.63466 -12.8833
rtoes 14.3053
lfemur -14.5535 -0.814061 -19.0568
ltibia 14.7287
lfoot -9.12637 2.99186
ltoes -2.60084
1634
root -0.963544 17.7554 8.87031 10.6377 1.68986 1.17018
lowerback 14.7911 -2.172 13.9873
upperback 7.44774 -0.784936 12.6037
thorax -0.181095 -0.288251 5.8987
lowerneck -4.63673 -9.11578 -4.0826
upperneck 35.2574 -11.4317 -3.62604
head 12.4674 -5.83563 -1.9601
rclavicle -3.18055e-015 6.99722e-014
rhumerus -6.98924 -12.7054 -55.4848
rradius 23.0721
rwrist -3.56547
rhand -14.0421 17.5604
rfingers 7.12502
rthumb 12.0885 -12.0705
lclavicle -3.18055e-015 6.99722e-014
lhumerus -31.321 -13.5233 99.9068
lradius 50.8447
lwrist 0.8205
lhand 1.33701 44.2162
lfingers 7.12502
lthumb 26.8704 72.3266
rfemur -15.1627 -0.890964 20.489
rtibia 14.3228
rfoot -8.66071 -12.9082
rtoes 14.297
lfemur -14.5817 -0.747712 -19.1962
ltibia 14.7676
lfoot -9.16694 2.85005
ltoes -2.60852
1635
root -0.953092 17.7576 8.87361 10.6653 1.75474 1.00842
lowerback 14.7426 -2.22363 14.2922
upperback 7.39355 -0.813351 12.6096
thorax -0.211821 -0.296754 5.74494
lowerneck -4.54503 -9.13908 -4.18372
upperneck 35.2335 -11.4763 -3.54821
head 12.4533 -5.85931 -1.91406
rclavicle -2.22639e-014 -5.08889e-014
rhumerus -7.06742 -12.3596 -55.4862
rradius 23.2158
rwrist -4.08454
rhand -14.0817 17.6137
rfingers 7.12502
rthumb 12.0503 -12.0194
lclavicle -2.22639e-014 -5.08889e-014
lhumerus -31.3132 -13.7676 100.03
lradius 50.7015
lwrist 0.99021
lhand 1.07581 44.1536
lfingers 7.12502
lthumb 26.6204 72.3022
rfemur -15.1462 -1.17761 20.6684
rtibia 14.2687
rfoot -8.62666 -12.6695
rtoes 14.1884
lfemur -14.6256 -0.755797 -19.0523
ltibia 14.8199
lfoot -9.19702 2.82414
ltoes -2.55924
1636
root -0.957422 17.758 8.87761 10.6633 1.69421 0.950308
lowerback 14.7469 -2.20572 14.2377
upperback 7.37364 -0.792305 12.651
thorax -0.235625 -0.290247 5.81793
lowerneck -4.48155 -9.15032 -4.33416
upperneck 35.2522 -11.4825 -3.51364
head 12.4639 -5.87646 -1.87588
rclavicle 3.18055e-015 7.63333e-014
rhumerus -7.17144 -12.2286 -55.5664
rradius 23.3318
rwrist -4.78587
rhand -14.4498 18.3628
rfingers 7.12502
rthumb 11.6953 -11.2908
lclavicle 3.18055e-015 7.63333e-014
lhumerus -31.4103 -13.695 100.135
lradius 50.9317
lwrist 1.12292
lhand 1.22393 44.6181
lfingers 7.12502
lthumb 26.7622 72.7451
rfemur -15.1228 -0.935448 20.7229
rtibia 14.2297
rfoot -8.64765 -12.8415
rtoes 14.2323
lfemur -14.631 -0.726963 -18.9683
ltibia 14.8398
lfoot -9.18405 2.85786
ltoes -2.48662
